<?xml version="1.0" encoding="UTF-8"?>
<svg width="50px" height="50px" viewBox="0 0 50 50" version="1.1" xmlns="http://www.w3.org/2000/svg" xmlns:xlink="http://www.w3.org/1999/xlink">
    <!-- Generator: Sketch 47.1 (45422) - http://www.bohemiancoding.com/sketch -->
    <title>Docs Logo</title>
    <desc>Created with Sketch.</desc>
    <defs>
        <radialGradient cx="18.0672064%" cy="50%" fx="18.0672064%" fy="50%" r="104.471507%" gradientTransform="translate(0.180672,0.500000),scale(0.177119,1.000000),rotate(90.000000),scale(1.000000,3.076269),translate(-0.180672,-0.500000)" id="radialGradient-1">
            <stop stop-color="#E2DFDF" offset="0%"></stop>
            <stop stop-color="#9B9B9B" offset="100%"></stop>
        </radialGradient>
        <path d="M5.2663341,3.63195626 L1.81597813,3.63195626 L1.81597813,3.63195626 C0.813041103,3.63195626 1.22824362e-16,2.81891516 0,1.81597813 L0,1.81597813 L0,1.81597813 C-1.22824362e-16,0.813041103 0.813041103,1.84236543e-16 1.81597813,0 L1.81597813,0 L5.31916422,0 C5.49304555,0.354305094 5.85738649,0.59820456 6.2786932,0.59820456 L7.6439088,0.59820456 C8.06521552,0.59820456 8.42955646,0.354305094 8.60343779,7.21644966e-16 L18.6897455,0 L18.6897455,-6.66133815e-16 C19.6926826,-8.50370358e-16 20.5057237,0.813041103 20.5057237,1.81597813 L20.5057237,1.81597813 C20.5057237,2.81891516 19.6926826,3.63195626 18.6897455,3.63195626 L8.65626791,3.63195626 C8.51372063,3.20963825 8.11432477,2.90556501 7.6439088,2.90556501 L7.6439088,2.90556501 L6.2786932,2.90556501 C5.80827723,2.90556501 5.40888137,3.20963825 5.2663341,3.63195626 Z M1.86660102,0.726391252 L1.86660102,0.726391252 C1.27663806,0.726391252 0.798378586,1.20465072 0.798378586,1.79461368 C0.798378586,2.38457664 1.27663806,2.86283611 1.86660102,2.86283611 L3.23181662,2.86283611 C3.82177958,2.86283611 4.30003905,2.38457664 4.30003905,1.79461368 L4.30003905,1.79461368 C4.30003905,1.20465072 3.82177958,0.726391252 3.23181662,0.726391252 L3.23181662,0.726391252 L1.86660102,0.726391252 Z" id="path-2"></path>
        <path d="M5.2663341,3.63195626 L1.81597813,3.63195626 L1.81597813,3.63195626 C0.813041103,3.63195626 1.22824362e-16,2.81891516 0,1.81597813 L0,1.81597813 L0,1.81597813 C-1.22824362e-16,0.813041103 0.813041103,1.84236543e-16 1.81597813,0 L1.81597813,0 L5.31916422,0 C5.49304555,0.354305094 5.85738649,0.59820456 6.2786932,0.59820456 L7.6439088,0.59820456 C8.06521552,0.59820456 8.42955646,0.354305094 8.60343779,9.71445147e-16 L18.6897455,0 L18.6897455,3.33066907e-15 C19.6926826,1.36485848e-15 20.5057237,0.813041103 20.5057237,1.81597813 L20.5057237,1.81597813 L20.5057237,1.81597813 C20.5057237,2.81891516 19.6926826,3.63195626 18.6897455,3.63195626 L8.65626791,3.63195626 C8.51372063,3.20963825 8.11432477,2.90556501 7.6439088,2.90556501 L7.6439088,2.90556501 L6.2786932,2.90556501 C5.80827723,2.90556501 5.40888137,3.20963825 5.2663341,3.63195626 Z M1.86660102,0.726391252 L1.86660102,0.726391252 C1.27663806,0.726391252 0.798378586,1.20465072 0.798378586,1.79461368 L0.798378586,1.79461368 L0.798378586,1.79461368 C0.798378586,2.38457664 1.27663806,2.86283611 1.86660102,2.86283611 L3.23181662,2.86283611 C3.82177958,2.86283611 4.30003905,2.38457664 4.30003905,1.79461368 L4.30003905,1.79461368 C4.30003905,1.20465072 3.82177958,0.726391252 3.23181662,0.726391252 L3.23181662,0.726391252 L1.86660102,0.726391252 Z" id="path-3"></path>
        <path d="M5.2663341,3.63195626 L1.81597813,3.63195626 L1.81597813,3.63195626 C0.813041103,3.63195626 1.22824362e-16,2.81891516 0,1.81597813 L0,1.81597813 L0,1.81597813 C-1.22824362e-16,0.813041103 0.813041103,1.84236543e-16 1.81597813,0 L1.81597813,0 L5.31916422,0 C5.49304555,0.354305094 5.85738649,0.59820456 6.2786932,0.59820456 L7.6439088,0.59820456 C8.06521552,0.59820456 8.42955646,0.354305094 8.60343779,1.05471187e-15 L18.6897455,0 L18.6897455,2.88657986e-15 C19.6926826,9.20769273e-16 20.5057237,0.813041103 20.5057237,1.81597813 L20.5057237,1.81597813 C20.5057237,2.81891516 19.6926826,3.63195626 18.6897455,3.63195626 L8.65626791,3.63195626 C8.51372063,3.20963825 8.11432477,2.90556501 7.6439088,2.90556501 L7.6439088,2.90556501 L6.2786932,2.90556501 C5.80827723,2.90556501 5.40888137,3.20963825 5.2663341,3.63195626 Z M1.86660102,0.726391252 L1.86660102,0.726391252 C1.27663806,0.726391252 0.798378586,1.20465072 0.798378586,1.79461368 C0.798378586,2.38457664 1.27663806,2.86283611 1.86660102,2.86283611 L3.23181662,2.86283611 C3.82177958,2.86283611 4.30003905,2.38457664 4.30003905,1.79461368 L4.30003905,1.79461368 C4.30003905,1.20465072 3.82177958,0.726391252 3.23181662,0.726391252 L3.23181662,0.726391252 L1.86660102,0.726391252 Z" id="path-4"></path>
        <linearGradient x1="0%" y1="0%" x2="100%" y2="100%" id="linearGradient-5">
            <stop stop-color="#6FB8FD" offset="0%"></stop>
            <stop stop-color="#4474B1" offset="100%"></stop>
        </linearGradient>
        <linearGradient x1="94.4980241%" y1="96.484375%" x2="-56.500648%" y2="0%" id="linearGradient-6">
            <stop stop-color="#DBEEFF" offset="0%"></stop>
            <stop stop-color="#024FB5" offset="100%"></stop>
        </linearGradient>
        <linearGradient x1="6.123234e-15%" y1="0%" x2="100%" y2="100%" id="linearGradient-7">
            <stop stop-color="#82BCFD" offset="0%"></stop>
            <stop stop-color="#5F91D4" offset="100%"></stop>
        </linearGradient>
        <path d="M10.4829128,15.25 L4.72445224,17.6352325 L5.20280653,18.7900819 L10.9612671,16.4048494 L6.55393219,20.8121843 L7.43781566,21.6960678 L11.8451506,17.2887329 L9.45991811,23.0471935 L10.6147675,23.5255478 L13,17.7670872 L13,25.25 L14.25,25.25 L14.25,17.7670872 L16.6352325,23.5255478 L17.7900819,23.0471935 L15.4048494,17.2887329 L19.8121843,21.6960678 L20.6960678,20.8121843 L16.2887329,16.4048494 L22.0471935,18.7900819 L22.5255478,17.6352325 L16.7670872,15.25 L24.25,15.25 L24.25,14 L16.7670872,14 L22.5255478,11.6147675 L22.0471935,10.4599181 L16.2887329,12.8451506 L20.6960678,8.43781566 L19.8121843,7.55393219 L15.4048494,11.9612671 L17.7900819,6.20280653 L16.6352325,5.72445224 L14.25,11.4829128 L14.25,4 L13,4 L13,11.4829128 L10.6147675,5.72445224 L9.45991811,6.20280653 L11.8451506,11.9612671 L7.43781566,7.55393219 L6.55393219,8.43781566 L10.9612671,12.8451506 L5.20280653,10.4599181 L4.72445224,11.6147675 L10.4829128,14 L3,14 L3,15.25 L10.4829128,15.25 Z" id="path-8"></path>
        <filter x="-23.5%" y="-23.5%" width="147.1%" height="147.1%" filterUnits="objectBoundingBox" id="filter-9">
            <feGaussianBlur stdDeviation="3" in="SourceAlpha" result="shadowBlurInner1"></feGaussianBlur>
            <feOffset dx="4" dy="4" in="shadowBlurInner1" result="shadowOffsetInner1"></feOffset>
            <feComposite in="shadowOffsetInner1" in2="SourceAlpha" operator="arithmetic" k2="-1" k3="1" result="shadowInnerInner1"></feComposite>
            <feColorMatrix values="0 0 0 0 0   0 0 0 0 0   0 0 0 0 0  0 0 0 0.163977582 0" type="matrix" in="shadowInnerInner1"></feColorMatrix>
        </filter>
        <linearGradient x1="13.4633819%" y1="14.1871166%" x2="87.4808282%" y2="85.846434%" id="linearGradient-10">
            <stop stop-color="#E3E3E3" offset="0%"></stop>
            <stop stop-color="#FFFFFF" offset="100%"></stop>
        </linearGradient>
        <ellipse id="path-11" cx="6.44472137" cy="6.48802498" rx="6.44472137" ry="6.48802498"></ellipse>
        <linearGradient x1="50%" y1="0%" x2="50%" y2="100%" id="linearGradient-13">
            <stop stop-color="#4F4F4F" offset="0%"></stop>
            <stop stop-color="#C6C6C6" offset="100%"></stop>
        </linearGradient>
        <rect id="path-14" x="-3.00490076" y="5.17449845" width="18.8992443" height="2.70666073"></rect>
        <filter x="-37.0%" y="-258.6%" width="174.1%" height="617.2%" filterUnits="objectBoundingBox" id="filter-15">
            <feMorphology radius="2" operator="erode" in="SourceAlpha" result="shadowSpreadInner1"></feMorphology>
            <feGaussianBlur stdDeviation="3" in="shadowSpreadInner1" result="shadowBlurInner1"></feGaussianBlur>
            <feOffset dx="6" dy="6" in="shadowBlurInner1" result="shadowOffsetInner1"></feOffset>
            <feComposite in="shadowOffsetInner1" in2="SourceAlpha" operator="arithmetic" k2="-1" k3="1" result="shadowInnerInner1"></feComposite>
            <feColorMatrix values="0 0 0 0 0   0 0 0 0 0   0 0 0 0 0  0 0 0 0.168251812 0" type="matrix" in="shadowInnerInner1"></feColorMatrix>
        </filter>
        <ellipse id="path-16" cx="13.8518213" cy="14.4368321" rx="6.44472137" ry="6.48802498"></ellipse>
        <filter x="-65.9%" y="-65.5%" width="231.9%" height="231.0%" filterUnits="objectBoundingBox" id="filter-17">
            <feMorphology radius="6" operator="erode" in="SourceAlpha" result="shadowSpreadInner1"></feMorphology>
            <feGaussianBlur stdDeviation="3" in="shadowSpreadInner1" result="shadowBlurInner1"></feGaussianBlur>
            <feOffset dx="4" dy="4" in="shadowBlurInner1" result="shadowOffsetInner1"></feOffset>
            <feComposite in="shadowOffsetInner1" in2="SourceAlpha" operator="arithmetic" k2="-1" k3="1" result="shadowInnerInner1"></feComposite>
            <feColorMatrix values="0 0 0 0 0   0 0 0 0 0   0 0 0 0 0  0 0 0 0.139351223 0" type="matrix" in="shadowInnerInner1"></feColorMatrix>
        </filter>
    </defs>
    <g id="Docs-Logo" stroke="none" stroke-width="1" fill="none" fill-rule="evenodd">
        <g id="Icon-S">
            <g transform="translate(12.000000, 6.000000)">
                <g id="Pins" transform="translate(1.795628, 14.863817)">
                    <g id="Pin" transform="translate(5.638245, 11.666198) rotate(-75.000000) translate(-5.638245, -11.666198) translate(-4.861755, 9.666198)">
                        <g>
                            <use fill="url(#radialGradient-1)" fill-rule="evenodd" xlink:href="#path-2"></use>
                            <path stroke="#D2D2D2" stroke-width="0.25" d="M5.1802533,3.50695626 C5.36487974,3.07240236 5.79382755,2.78056501 6.2786932,2.78056501 L7.6439088,2.78056501 C8.12877445,2.78056501 8.55772226,3.07240236 8.74234871,3.50695626 L18.6897455,3.50695626 C19.623647,3.50695626 20.3807237,2.74987956 20.3807237,1.81597813 C20.3807237,0.882076696 19.623647,0.125 18.6897455,0.125 L8.67841921,0.125 C8.4679885,0.490541714 8.07680331,0.72320456 7.6439088,0.72320456 L6.2786932,0.72320456 C5.84579869,0.72320456 5.45461351,0.490541714 5.2441828,0.125 L1.81597813,0.125 C0.882076696,0.125 0.125,0.882076696 0.125,1.81597813 C0.125,2.74987956 0.882076696,3.50695626 1.81597813,3.50695626 L5.1802533,3.50695626 Z M1.86660102,0.601391252 L3.23181662,0.601391252 C3.89081517,0.601391252 4.42503905,1.13561513 4.42503905,1.79461368 C4.42503905,2.45361223 3.89081517,2.98783611 3.23181662,2.98783611 L1.86660102,2.98783611 C1.20760246,2.98783611 0.673378586,2.45361223 0.673378586,1.79461368 C0.673378586,1.13561513 1.20760246,0.601391252 1.86660102,0.601391252 Z"></path>
                        </g>
                    </g>
                    <g id="Pin-Copy" transform="translate(12.244769, 13.317509) rotate(-90.000000) translate(-12.244769, -13.317509) translate(1.744769, 11.317509)">
                        <g id="Pin">
                            <use fill="url(#radialGradient-1)" fill-rule="evenodd" xlink:href="#path-3"></use>
                            <path stroke="#D2D2D2" stroke-width="0.25" d="M5.1802533,3.50695626 C5.36487974,3.07240236 5.79382755,2.78056501 6.2786932,2.78056501 L7.6439088,2.78056501 C8.12877445,2.78056501 8.55772226,3.07240236 8.74234871,3.50695626 L18.6897455,3.50695626 C19.623647,3.50695626 20.3807237,2.74987956 20.3807237,1.81597813 C20.3807237,0.882076696 19.623647,0.125 18.6897455,0.125 L8.67841921,0.125 C8.4679885,0.490541714 8.07680331,0.72320456 7.6439088,0.72320456 L6.2786932,0.72320456 C5.84579869,0.72320456 5.45461351,0.490541714 5.2441828,0.125 L1.81597813,0.125 C0.882076696,0.125 0.125,0.882076696 0.125,1.81597813 C0.125,2.74987956 0.882076696,3.50695626 1.81597813,3.50695626 L5.1802533,3.50695626 Z M1.86660102,0.601391252 L3.23181662,0.601391252 C3.89081517,0.601391252 4.42503905,1.13561513 4.42503905,1.79461368 C4.42503905,2.45361223 3.89081517,2.98783611 3.23181662,2.98783611 L1.86660102,2.98783611 C1.20760246,2.98783611 0.673378586,2.45361223 0.673378586,1.79461368 C0.673378586,1.13561513 1.20760246,0.601391252 1.86660102,0.601391252 Z"></path>
                        </g>
                    </g>
                    <g id="Pin-Copy-2" transform="translate(18.830910, 11.552510) rotate(-105.000000) translate(-18.830910, -11.552510) translate(8.330910, 9.552510)">
                        <g id="Pin">
                            <use fill="url(#radialGradient-1)" fill-rule="evenodd" xlink:href="#path-4"></use>
                            <path stroke="#D2D2D2" stroke-width="0.25" d="M5.1802533,3.50695626 C5.36487974,3.07240236 5.79382755,2.78056501 6.2786932,2.78056501 L7.6439088,2.78056501 C8.12877445,2.78056501 8.55772226,3.07240236 8.74234871,3.50695626 L18.6897455,3.50695626 C19.623647,3.50695626 20.3807237,2.74987956 20.3807237,1.81597813 C20.3807237,0.882076696 19.623647,0.125 18.6897455,0.125 L8.67841921,0.125 C8.4679885,0.490541714 8.07680331,0.72320456 7.6439088,0.72320456 L6.2786932,0.72320456 C5.84579869,0.72320456 5.45461351,0.490541714 5.2441828,0.125 L1.81597813,0.125 C0.882076696,0.125 0.125,0.882076696 0.125,1.81597813 C0.125,2.74987956 0.882076696,3.50695626 1.81597813,3.50695626 L5.1802533,3.50695626 Z M1.86660102,0.601391252 L3.23181662,0.601391252 C3.89081517,0.601391252 4.42503905,1.13561513 4.42503905,1.79461368 C4.42503905,2.45361223 3.89081517,2.98783611 3.23181662,2.98783611 L1.86660102,2.98783611 C1.20760246,2.98783611 0.673378586,2.45361223 0.673378586,1.79461368 C0.673378586,1.13561513 1.20760246,0.601391252 1.86660102,0.601391252 Z"></path>
                        </g>
                    </g>
                </g>
                <ellipse id="Body-Copy" stroke="#5A5A5A" fill="url(#linearGradient-5)" cx="13.7951228" cy="14.4178057" rx="13.6076228" ry="13.6990557"></ellipse>
                <path d="M0.377725773,16.6847202 C0.466948801,16.6954569 0.557771235,16.7009816 0.649881172,16.7009816 C1.89757162,16.7009816 2.90902457,15.6872874 2.90902457,14.4368321 C2.90902457,13.1863769 1.89757162,12.1726827 0.649881172,12.1726827 C0.553160178,12.1726827 0.457858819,12.1787743 0.364338226,12.1905957 C0.247984245,12.9088592 0.1875,13.6459056 0.1875,14.3971102 C0.1875,15.1766143 0.25262723,15.9408734 0.377725773,16.6847202 Z" id="Oval-Copy" fill="url(#linearGradient-6)"></path>
                <path d="M11.5444455,0.905305691 C11.5330534,0.997918628 11.5271857,1.09226175 11.5271857,1.18798848 C11.5271857,2.44199113 12.5341142,3.45856113 13.7762234,3.45856113 C15.0183326,3.45856113 16.025261,2.44199113 16.025261,1.18798848 C16.025261,1.09071392 16.019202,0.99486807 16.0074443,0.900814598 C15.2856814,0.781041781 14.5447423,0.71875 13.7893922,0.71875 C13.0246569,0.71875 12.274693,0.782599331 11.5444455,0.905305691 Z" id="Oval-Copy-2" fill="url(#linearGradient-6)"></path>
                <path d="M27.2261319,12.1873557 C27.1416254,12.1776629 27.0556974,12.1726827 26.9686136,12.1726827 C25.7261974,12.1726827 24.7190201,13.1863769 24.7190201,14.4368321 C24.7190201,15.6872874 25.7261974,16.7009816 26.9686136,16.7009816 C27.0511248,16.7009816 27.1325985,16.6965107 27.2128085,16.6877964 C27.3377148,15.9429805 27.4027457,15.1776889 27.4027457,14.3971102 C27.4027457,13.6447761 27.3423358,12.9066427 27.2261319,12.1873557 Z" id="Oval" fill="url(#linearGradient-6)"></path>
                <path d="M11.5174373,1.37016305 C6.05824012,2.32329958 1.75495532,6.67161606 0.830082189,12.1768783 C1.98250537,12.2777388 2.88666439,13.2518105 2.88666439,14.4385549 C2.88666439,15.6206887 1.98951722,16.5917991 0.843502754,16.6990164 C1.92452507,22.905588 7.30333602,27.6221732 13.77602,27.6221732 C20.249599,27.6221732 25.6290024,22.9042836 26.7089855,16.6964418 C25.5753835,16.5771305 24.6917255,15.611768 24.6917255,14.4385549 C24.6917255,13.2607303 25.5823439,12.2923934 26.7223645,12.1793003 C25.7968803,6.66415214 21.4809309,2.30963612 16.0085971,1.36564985 C15.9084457,2.52623199 14.9412218,3.4367923 13.7628202,3.4367923 C12.5859466,3.4367923 11.6197034,2.52859174 11.5174373,1.37016305 Z" id="Combined-Shape" fill="url(#linearGradient-7)"></path>
                <g id="Markings">
                    <use fill="#5280BD" fill-rule="evenodd" xlink:href="#path-8"></use>
                    <use fill="black" fill-opacity="1" filter="url(#filter-9)" xlink:href="#path-8"></use>
                </g>
                <g id="Slit" transform="translate(7.407100, 7.948807)">
                    <mask id="mask-12" fill="white">
                        <use xlink:href="#path-11"></use>
                    </mask>
                    <use id="Mask" fill="url(#linearGradient-10)" xlink:href="#path-11"></use>
                    <g id="Rectangle" mask="url(#mask-12)" transform="translate(6.444721, 6.527829) rotate(-51.000000) translate(-6.444721, -6.527829) ">
                        <use fill="url(#linearGradient-13)" fill-rule="evenodd" xlink:href="#path-14"></use>
                        <use fill="black" fill-opacity="1" filter="url(#filter-15)" xlink:href="#path-14"></use>
                    </g>
                </g>
                <g id="Screw">
                    <use fill="black" fill-opacity="1" filter="url(#filter-17)" xlink:href="#path-16"></use>
                    <use stroke="#515151" stroke-width="1" xlink:href="#path-16"></use>
                </g>
            </g>
        </g>
    </g>
</svg>